<svg id='Bash_48' width='48' height='48' viewBox='0 0 48 48' xmlns='http://www.w3.org/2000/svg' xmlns:xlink='http://www.w3.org/1999/xlink'><rect width='48' height='48' stroke='none' fill='#000000' opacity='0'/>


<g transform="matrix(0.44 0 0 0.44 24 24)" >
<g style="" >
<g transform="matrix(1 0 0 1 0 0)" >
<path style="stroke: none; stroke-width: 1; stroke-dasharray: none; stroke-linecap: butt; stroke-dashoffset: 0; stroke-linejoin: miter; stroke-miterlimit: 4; fill: rgb(254,253,239); fill-rule: nonzero; opacity: 1;" transform=" translate(-50, -50)" d="M 82 63.613 L 82 36.387 C 82 33.379 80.397 30.598 77.789 29.094 L 54.211 15.48 C 51.605 13.976 48.397 13.976 45.79 15.48 L 22.211 29.094 C 19.605 30.598 18 33.379 18 36.387 L 18 63.614000000000004 C 18 66.622 19.605 69.403 22.211 70.90700000000001 L 45.789 84.52 C 48.396 86.024 51.605000000000004 86.024 54.21 84.52 L 77.789 70.907 C 80.397 69.402 82 66.621 82 63.613" stroke-linecap="round" />
</g>
<g transform="matrix(1 0 0 1 15.5 8.75)" >
<path style="stroke: none; stroke-width: 1; stroke-dasharray: none; stroke-linecap: butt; stroke-dashoffset: 0; stroke-linejoin: miter; stroke-miterlimit: 4; fill: rgb(68,68,69); fill-rule: nonzero; opacity: 1;" transform=" translate(-65.5, -58.75)" d="M 76.843 33.356 L 53.346 46.411 C 51.281 47.558 50 49.733 50 52.096 L 50 82.118 C 50 83.92999999999999 51.948 85.077 53.534 84.19699999999999 L 78.968 70.06599999999999 C 79.807 69.365 80.494 68.51699999999998 81 67.56599999999999 L 81 35.804 C 81 33.67 78.708 32.319 76.843 33.356 z" stroke-linecap="round" />
</g>
<g transform="matrix(1 0 0 1 9.6 13.31)" >
<path style="stroke: none; stroke-width: 1; stroke-dasharray: none; stroke-linecap: butt; stroke-dashoffset: 0; stroke-linejoin: miter; stroke-miterlimit: 4; fill: rgb(254,253,239); fill-rule: nonzero; opacity: 1;" transform=" translate(-59.6, -63.31)" d="M 60.092 52.778 C 60.281 52.682 60.437 52.8 60.439 53.047 L 60.459 55.068 C 61.304 54.733 62.039 54.641999999999996 62.706 54.797 C 62.851000000000006 54.833999999999996 62.915000000000006 55.031 62.856 55.265 L 62.411 57.055 C 62.374 57.191 62.300000000000004 57.328 62.209 57.412 C 62.169000000000004 57.451 62.13 57.479 62.091 57.5 C 62.03 57.53 61.971000000000004 57.54 61.916000000000004 57.529 C 61.611000000000004 57.46 60.889 57.30200000000001 59.752 57.878 C 58.56 58.483 58.142 59.518 58.150000000000006 60.286 C 58.160000000000004 61.206 58.632000000000005 61.485 60.25900000000001 61.514 C 62.42700000000001 61.549 63.36300000000001 62.498000000000005 63.385000000000005 64.679 C 63.409000000000006 66.825 62.263000000000005 69.12700000000001 60.51200000000001 70.537 L 60.55100000000001 72.54 C 60.55300000000001 72.781 60.39800000000001 73.057 60.20700000000001 73.153 L 59.02100000000001 73.83500000000001 C 58.83200000000001 73.93100000000001 58.67600000000001 73.813 58.67400000000001 73.572 L 58.654 71.60300000000001 C 57.638000000000005 72.02600000000001 56.611000000000004 72.12700000000001 55.954 71.864 C 55.829 71.815 55.775 71.632 55.826 71.423 L 56.255 69.614 C 56.289 69.473 56.364000000000004 69.32900000000001 56.467000000000006 69.238 C 56.502 69.203 56.541000000000004 69.176 56.578 69.157 C 56.645 69.12299999999999 56.711000000000006 69.115 56.768 69.137 C 57.475 69.374 58.38 69.263 59.252 68.822 C 60.357 68.263 61.098 67.134 61.086000000000006 66.013 C 61.07600000000001 64.997 60.525000000000006 64.575 59.18600000000001 64.56500000000001 C 57.482000000000006 64.56800000000001 55.89300000000001 64.23500000000001 55.86600000000001 61.72500000000001 C 55.84400000000001 59.65800000000001 56.919000000000004 57.50900000000001 58.620000000000005 56.150000000000006 L 58.6 54.13 C 58.598 53.882000000000005 58.75 53.61 58.944 53.510000000000005 L 60.092 52.778 z" stroke-linecap="round" />
</g>
<g transform="matrix(1 0 0 1 18.68 19.4)" >
<path style="stroke: none; stroke-width: 1; stroke-dasharray: none; stroke-linecap: butt; stroke-dashoffset: 0; stroke-linejoin: miter; stroke-miterlimit: 4; fill: rgb(77,169,37); fill-rule: nonzero; opacity: 1;" transform=" translate(-68.68, -69.4)" d="M 71.572 68.64 L 65.86800000000001 71.825 C 65.75900000000001 71.88600000000001 65.62400000000001 71.806 65.62400000000001 71.682 L 65.62400000000001 70.43 C 65.62400000000001 70.31700000000001 65.68500000000002 70.21300000000001 65.784 70.15700000000001 L 71.488 66.97200000000001 C 71.599 66.911 71.734 66.99100000000001 71.734 67.117 L 71.734 68.36500000000001 C 71.734 68.48 71.672 68.584 71.572 68.64" stroke-linecap="round" />
</g>
<g transform="matrix(1 0 0 1 -16.5 7.16)" >
<path style="stroke: none; stroke-width: 1; stroke-dasharray: none; stroke-linecap: butt; stroke-dashoffset: 0; stroke-linejoin: miter; stroke-miterlimit: 4; fill: rgb(31,33,43); fill-rule: nonzero; opacity: 1;" transform=" translate(-33.5, -57.16)" d="M 44 78.213 C 43.915 78.213 43.829 78.192 43.75 78.146 L 41.75 76.991 C 41.511 76.853 41.429 76.547 41.567 76.30799999999999 C 41.705 76.068 42.011 75.988 42.25 76.12499999999999 L 44.25 77.27999999999999 C 44.489 77.41799999999999 44.571 77.72399999999999 44.433 77.963 C 44.341 78.124 44.172 78.213 44 78.213 z M 40 75.904 C 39.915 75.904 39.829 75.883 39.75 75.837 L 28.657 69.433 C 28.418 69.295 28.336 68.989 28.474 68.75 C 28.612000000000002 68.511 28.918 68.431 29.157 68.567 L 40.25 74.97099999999999 C 40.489 75.109 40.571 75.41499999999999 40.433 75.654 C 40.341 75.814 40.172 75.904 40 75.904 z M 27 68.398 C 26.915 68.398 26.829 68.377 26.75 68.331 L 24.645 67.116 C 23.322 66.352 22.5 64.929 22.5 63.400999999999996 L 22.5 46 C 22.5 45.724 22.724 45.5 23 45.5 C 23.276 45.5 23.5 45.724 23.5 46 L 23.5 63.400999999999996 C 23.5 64.572 24.13 65.664 25.145 66.25 L 27.25 67.465 C 27.489 67.60300000000001 27.571 67.909 27.433 68.14800000000001 C 27.341 68.309 27.172 68.398 27 68.398 z M 23 44.5 C 22.724 44.5 22.5 44.276 22.5 44 L 22.5 41 C 22.5 40.724 22.724 40.5 23 40.5 C 23.276 40.5 23.5 40.724 23.5 41 L 23.5 44 C 23.5 44.276 23.276 44.5 23 44.5 z M 23 39.5 C 22.724 39.5 22.5 39.276 22.5 39 L 22.5 36.6 C 22.5 36.324 22.724 36.1 23 36.1 C 23.276 36.1 23.5 36.324 23.5 36.6 L 23.5 39 C 23.5 39.276 23.276 39.5 23 39.5 z" stroke-linecap="round" />
</g>
<g transform="matrix(1 0 0 1 0 0.01)" >
<path style="stroke: none; stroke-width: 1; stroke-dasharray: none; stroke-linecap: butt; stroke-dashoffset: 0; stroke-linejoin: miter; stroke-miterlimit: 4; fill: rgb(31,33,43); fill-rule: nonzero; opacity: 1;" transform=" translate(-50, -50.01)" d="M 77.855 28.553 L 54.645 15.154000000000002 C 51.829 13.527000000000001 48.179 13.525000000000002 45.355000000000004 15.154000000000002 L 22.144000000000005 28.554000000000002 C 19.279 30.209 17.5 33.292 17.5 36.6 L 17.5 63.402 C 17.5 66.71000000000001 19.279 69.793 22.145 71.447 L 45.357 84.84700000000001 C 46.769 85.661 48.375 86.09200000000001 50.001 86.09200000000001 C 51.629 86.09200000000001 53.235 85.66100000000002 54.646 84.84700000000001 L 77.857 71.447 C 80.721 69.794 82.502 66.712 82.502 63.402 L 82.502 36.6 C 82.5 33.291 80.721 30.208 77.855 28.553 z M 46.355 83.114 L 23.144 69.714 C 20.895999999999997 68.416 19.499 65.998 19.499 63.402 L 19.499 36.6 C 19.499 34.004000000000005 20.895 31.585 23.144 30.286 L 46.355 16.887 C 47.461999999999996 16.248 48.721999999999994 15.91 50 15.91 C 51.278999999999996 15.91 52.539 16.248 53.645 16.887 L 76.856 30.286 C 77.907 30.893 78.762 31.751 79.38499999999999 32.751000000000005 C 78.478 32.39600000000001 77.47399999999999 32.434000000000005 76.6 32.92 L 53.104 45.974 C 50.881 47.208 49.5 49.553999999999995 49.5 52.096 L 49.5 82.118 C 49.5 82.856 49.782 83.535 50.263 84.05699999999999 C 48.909 84.104 47.541 83.798 46.355 83.114 z M 76.855 69.714 L 53.644000000000005 83.114 C 53.044000000000004 83.46000000000001 52.395 83.705 51.726000000000006 83.863 C 51.62500000000001 83.825 51.522000000000006 83.791 51.42600000000001 83.734 C 50.84600000000001 83.393 50.50000000000001 82.788 50.50000000000001 82.11699999999999 L 50.50000000000001 52.096 C 50.50000000000001 49.916999999999994 51.684000000000005 47.906 53.59 46.848 L 77.086 33.794 C 77.437 33.599 77.819 33.501999999999995 78.202 33.501999999999995 C 78.602 33.501999999999995 79.003 33.608999999999995 79.366 33.821999999999996 C 79.783 34.06699999999999 80.085 34.431 80.277 34.849999999999994 C 80.418 35.416999999999994 80.5 36.00299999999999 80.5 36.599999999999994 L 80.5 63.401999999999994 C 80.5 65.999 79.104 68.417 76.855 69.714 z" stroke-linecap="round" />
</g>
</g>
</g>
</svg>
