<svg id='Visual_Studio_2019_48' width='48' height='48' viewBox='0 0 48 48' xmlns='http://www.w3.org/2000/svg' xmlns:xlink='http://www.w3.org/1999/xlink'><rect width='48' height='48' stroke='none' fill='#000000' opacity='0'/>


<g transform="matrix(0.92 0 0 0.92 24 24)" >
<g style="" >
<g transform="matrix(1 0 0 1 14.6 0)" >
<path style="stroke: none; stroke-width: 1; stroke-dasharray: none; stroke-linecap: butt; stroke-dashoffset: 0; stroke-linejoin: miter; stroke-miterlimit: 4; fill: rgb(206,147,216); fill-rule: nonzero; opacity: 1;" transform=" translate(-38.6, -24)" d="M 44 11.11 L 44 36.89 C 44 38.160000000000004 43.21 39.29 42.02 39.71 L 33.2 43.85 L 34 33 L 34 15 L 33.2 4.15 L 42.02 8.29 C 43.21 8.71 44 9.84 44 11.11 z" stroke-linecap="round" />
</g>
<g transform="matrix(1 0 0 1 -4.79 -3.95)" >
<path style="stroke: none; stroke-width: 1; stroke-dasharray: none; stroke-linecap: butt; stroke-dashoffset: 0; stroke-linejoin: miter; stroke-miterlimit: 4; fill: rgb(142,36,170); fill-rule: nonzero; opacity: 1;" transform=" translate(-19.21, -20.05)" d="M 4.416 33.815 L 7.575 35.765 C 8.308 36.205 9.239 36.13 9.893 35.58 L 34 15.938 L 34 5.353 C 34 4.154999999999999 32.518 3.5949999999999998 31.725 4.492999999999999 L 9 29.873 L 4.416 33.815 z" stroke-linecap="round" />
</g>
<g transform="matrix(1 0 0 1 -4.79 3.95)" >
<path style="stroke: none; stroke-width: 1; stroke-dasharray: none; stroke-linecap: butt; stroke-dashoffset: 0; stroke-linejoin: miter; stroke-miterlimit: 4; fill: rgb(171,71,188); fill-rule: nonzero; opacity: 1;" transform=" translate(-19.21, -27.95)" d="M 4.416 14.185 L 7.575 12.235000000000001 C 8.308 11.795000000000002 9.239 11.870000000000001 9.893 12.420000000000002 L 34 32.063 L 34 42.648 C 34 43.846000000000004 32.518 44.406000000000006 31.725 43.508 L 9 18.127 L 4.416 14.185 z" stroke-linecap="round" />
</g>
<g transform="matrix(1 0 0 1 -17.5 0)" >
<path style="stroke: none; stroke-width: 1; stroke-dasharray: none; stroke-linecap: butt; stroke-dashoffset: 0; stroke-linejoin: miter; stroke-miterlimit: 4; fill: rgb(106,27,154); fill-rule: nonzero; opacity: 1;" transform=" translate(-6.5, -24)" d="M 9 18.13 L 9 29.869999999999997 L 5.8 33.61 C 5.22 34.37 4 33.96 4 33 L 4 15 C 4 14.04 5.22 13.629999999999999 5.8 14.39 L 9 18.13 z" stroke-linecap="round" />
</g>
</g>
</g>
</svg>
